# xmcd CD database file
#
# Track frame offsets:
#	150
#	14784
#	28621
#	45073
#	62277
#
# Disc length: 1003 seconds
#
# Revision: 1
# Processed by: cddbd v1.4PL0 Copyright (c) Steve Scherf et al.
# Submitted via: CDex 1.40Beta5
#
DISCID=3003e905
DTITLE=Vollmond -  furt vo mir
DYEAR=2000
DGENRE=Blues
TTITLE0=furt vo mir
TTITLE1=vogu
TTITLE2=himuwit ewäg
TTITLE3=furt vo mir
TTITLE4=hammerstrass 127
EXTD=YEAR: 2000 ID3G:   0
EXTT0=
EXTT1=
EXTT2=
EXTT3=
EXTT4=
PLAYORDER=
